<svg xmlns="http://www.w3.org/2000/svg" width="800" height="480" viewBox="0 0 800 480" fill="none">
  <defs>
    <linearGradient id="bg" x1="0" y1="0" x2="800" y2="480" gradientUnits="userSpaceOnUse">
      <stop stop-color="#0f172a"/>
      <stop offset="1" stop-color="#1e3a5f"/>
    </linearGradient>
  </defs>
  <rect width="800" height="480" fill="url(#bg)"/>
  <rect x="48" y="48" width="704" height="384" rx="20" fill="#fff" fill-opacity="0.97"/>
  <rect x="72" y="76" width="160" height="16" rx="5" fill="#0F172A"/>
  <rect x="72" y="104" width="220" height="10" rx="3" fill="#94A3B8" fill-opacity="0.4"/>
  <g transform="translate(72,140)">
    <rect width="200" height="88" rx="14" fill="#FEF2F2"/>
    <rect x="20" y="24" width="80" height="12" rx="3" fill="#E11D48"/>
    <rect x="20" y="48" width="120" height="20" rx="4" fill="#334155"/>
  </g>
  <g transform="translate(292,140)">
    <rect width="200" height="88" rx="14" fill="#EFF6FF"/>
    <rect x="20" y="24" width="70" height="12" rx="3" fill="#3B82F6"/>
    <rect x="20" y="48" width="110" height="20" rx="4" fill="#334155"/>
  </g>
  <g transform="translate(512,140)">
    <rect width="200" height="88" rx="14" fill="#ECFDF5"/>
    <rect x="20" y="24" width="90" height="12" rx="3" fill="#10B981"/>
    <rect x="20" y="48" width="100" height="20" rx="4" fill="#334155"/>
  </g>
  <g transform="translate(72,250)">
    <rect width="640" height="150" rx="14" fill="#F8FAFC"/>
    <polyline points="40,120 120,90 200,100 280,60 360,75 440,40 520,55 600,30" fill="none" stroke="#E11D48" stroke-width="4" stroke-linecap="round" stroke-linejoin="round"/>
    <circle cx="600" cy="30" r="6" fill="#E11D48"/>
  </g>
</svg>
